<?xml version="1.0" ?><!DOCTYPE svg  PUBLIC '-//W3C//DTD SVG 1.1//EN'  'http://www.w3.org/Graphics/SVG/1.1/DTD/svg11.dtd'><svg enable-background="new 0 0 100 100" height="100px" id="Layer_1" version="1.1" viewBox="0 0 100 100" width="100px" xml:space="preserve" xmlns="http://www.w3.org/2000/svg" xmlns:xlink="http://www.w3.org/1999/xlink"><path d="M50,3.84C24.506,3.84,3.84,24.506,3.84,50S24.506,96.16,50,96.16S96.16,75.494,96.16,50S75.494,3.84,50,3.84  z M67.57,75.804c-0.979,0.231-1.964,0.445-2.931,0.727c-1.72,0.502-3.344,1.02-5.145,1.15c-1.718,0.125-3.414,0.455-5.134,0.556  c-1.665,0.097-3.344,0.013-4.998-0.186c-2.381-0.287-3.905-1.271-5.826-2.632c-1.638-1.162-2.688-2.053-3.277-4.022  c-0.488-1.636-0.456-8.224-0.328-9.934c0.128-1.732-0.22-3.46-0.076-5.267c0.134-1.684,0.08-3.42,0.08-5.126  c0-1.443-0.24-5.625-0.24-5.625c-1.112-0.007-2.196,0.067-3.2,0.075c-0.928,0.009-2.166-0.062-3.288-0.155l-0.88-0.08  c0-0.761,0.097-2.773,0.163-3.685c0.099-1.344-0.08-2.678-0.083-4.006c0-0.098,1.565-0.688,1.743-0.775  c0.601-0.298,1.178-0.633,1.726-1.02c1.039-0.731,2.124-1.429,3.079-2.271c1.433-1.262,2.187-3.156,3.08-4.806  c0.661-1.221,1.084-2.546,1.454-3.879c0.064-0.232,0.8-3.11,0.694-3.108c0.003,0,5.841-0.027,7.41,0c0,0-0.031,6.189-0.121,7.463  c-0.166,2.328-0.125,6.878-0.125,6.878L52.111,36c2.209,0,4.419,0,6.662,0c1.293,0,6.944,0.204,7.228,0.16  c0,0,0.067,8.069-0.112,8.805c-1.913,0.186-3.747,0.205-5.664,0.171c-1.746-0.029-3.466,0.362-5.221,0.29  c-1.094-0.046-2.698-0.225-3.613-0.071c0,0-0.23,4.263-0.241,5.691c-0.024,3.324,0.236,6.618,0.387,9.931  c0.106,2.314-0.216,4.996,1.797,6.584c0.622,0.491,1.284,1.05,2,1.396c0.771,0.372,1.749,0.433,2.589,0.406  c3.093-0.098,5.992-0.571,8.664-2.232c0.355-0.221,0.739-0.318,1.086-0.608C67.673,66.524,67.57,75.323,67.57,75.804z" fill="#44546B"/></svg>